# Blender 4.4.3
# www.blender.org
o Cone
v -0.000000 1.174504 -0.152321
v 0.039424 1.174504 -0.147131
v 0.076161 1.174504 -0.131914
v 0.107707 1.174504 -0.107707
v 0.131914 1.174504 -0.076161
v 0.147131 1.174504 -0.039424
v 0.152321 1.174504 -0.000000
v 0.147131 1.174504 0.039424
v 0.131914 1.174504 0.076161
v 0.107707 1.174504 0.107707
v 0.076161 1.174504 0.131914
v 0.039424 1.174504 0.147131
v -0.000000 1.174504 0.152321
v -0.039424 1.174504 0.147131
v -0.076161 1.174504 0.131914
v -0.107707 1.174504 0.107707
v -0.131914 1.174504 0.076161
v -0.147131 1.174504 0.039424
v -0.152321 1.174504 -0.000000
v -0.147131 1.174504 -0.039424
v -0.131914 1.174504 -0.076161
v -0.107707 1.174504 -0.107707
v -0.076161 1.174504 -0.131914
v -0.039424 1.174504 -0.147131
v 0.000000 1.775898 0.000000
v 0.000000 1.174504 -0.300697
v 0.077826 1.174504 -0.290451
v 0.150348 1.174504 -0.260411
v 0.212625 1.174504 -0.212625
v 0.260411 1.174504 -0.150348
v 0.290451 1.174504 -0.077826
v 0.300697 1.174504 0.000000
v 0.290451 1.174504 0.077826
v 0.260411 1.174504 0.150348
v 0.212625 1.174504 0.212625
v 0.150348 1.174504 0.260411
v 0.077826 1.174504 0.290451
v 0.000000 1.174504 0.300697
v -0.077826 1.174504 0.290451
v -0.150348 1.174504 0.260411
v -0.212625 1.174504 0.212625
v -0.260411 1.174504 0.150348
v -0.290451 1.174504 0.077826
v -0.300697 1.174504 0.000000
v -0.290451 1.174504 -0.077826
v -0.260411 1.174504 -0.150348
v -0.212625 1.174504 -0.212625
v -0.150348 1.174504 -0.260411
v -0.077826 1.174504 -0.290451
v -0.000000 0.061417 -0.152321
v 0.039424 0.061417 -0.147131
v 0.076161 0.061417 -0.131914
v 0.107707 0.061417 -0.107707
v 0.131914 0.061417 -0.076161
v 0.147131 0.061417 -0.039424
v 0.152321 0.061417 -0.000000
v 0.147131 0.061417 0.039424
v 0.131914 0.061417 0.076161
v 0.107707 0.061417 0.107707
v 0.076161 0.061417 0.131914
v 0.039424 0.061417 0.147131
v -0.000000 0.061417 0.152321
v -0.039424 0.061417 0.147131
v -0.076161 0.061417 0.131914
v -0.107707 0.061417 0.107707
v -0.131914 0.061417 0.076161
v -0.147131 0.061417 0.039424
v -0.152321 0.061417 -0.000000
v -0.147131 0.061417 -0.039424
v -0.131914 0.061417 -0.076161
v -0.107707 0.061417 -0.107707
v -0.076161 0.061417 -0.131914
v -0.039424 0.061417 -0.147131
vn 0.1169 0.4441 -0.8883
vn 0.3429 0.4441 -0.8278
vn 0.5454 0.4441 -0.7108
vn 0.7108 0.4441 -0.5454
vn 0.8278 0.4441 -0.3429
vn 0.8883 0.4441 -0.1169
vn 0.8883 0.4441 0.1169
vn 0.8278 0.4441 0.3429
vn 0.7108 0.4441 0.5454
vn 0.5454 0.4441 0.7108
vn 0.3429 0.4441 0.8278
vn 0.1169 0.4441 0.8883
vn -0.1169 0.4441 0.8883
vn -0.3429 0.4441 0.8278
vn -0.5454 0.4441 0.7108
vn -0.7108 0.4441 0.5454
vn -0.8278 0.4441 0.3429
vn -0.8883 0.4441 0.1169
vn -0.8883 0.4441 -0.1169
vn -0.8278 0.4441 -0.3429
vn -0.7108 0.4441 -0.5454
vn -0.5454 0.4441 -0.7108
vn 0.6088 -0.0000 -0.7934
vn -0.3429 0.4441 -0.8278
vn -0.1169 0.4441 -0.8883
vn -0.0000 -1.0000 -0.0000
vn -0.9914 -0.0000 0.1305
vn 0.3827 -0.0000 0.9239
vn 0.7934 -0.0000 -0.6088
vn -0.9914 -0.0000 -0.1305
vn 0.1305 -0.0000 0.9914
vn 0.9239 -0.0000 -0.3827
vn -0.9239 -0.0000 -0.3827
vn -0.1305 -0.0000 0.9914
vn 0.9914 -0.0000 -0.1305
vn -0.7934 -0.0000 -0.6088
vn -0.3827 -0.0000 0.9239
vn 0.9914 -0.0000 0.1305
vn -0.6088 -0.0000 -0.7934
vn -0.6088 -0.0000 0.7934
vn 0.9239 -0.0000 0.3827
vn -0.3827 -0.0000 -0.9239
vn 0.1305 -0.0000 -0.9914
vn -0.7934 -0.0000 0.6088
vn 0.7934 -0.0000 0.6088
vn -0.1305 -0.0000 -0.9914
vn 0.3827 -0.0000 -0.9239
vn -0.9239 -0.0000 0.3827
vn 0.6088 -0.0000 0.7934
vt 0.250000 0.490000
vt 0.250000 0.250000
vt 0.312117 0.481822
vt 0.370000 0.457846
vt 0.419706 0.419706
vt 0.457846 0.370000
vt 0.481822 0.312117
vt 0.490000 0.250000
vt 0.481822 0.187883
vt 0.457846 0.130000
vt 0.419706 0.080294
vt 0.370000 0.042154
vt 0.312117 0.018178
vt 0.250000 0.010000
vt 0.187883 0.018178
vt 0.130000 0.042154
vt 0.080294 0.080294
vt 0.042154 0.130000
vt 0.018178 0.187883
vt 0.010000 0.250000
vt 0.018178 0.312117
vt 0.042154 0.370000
vt 0.080294 0.419706
vt 0.130000 0.457846
vt 0.861214 0.361215
vt 0.828640 0.386210
vt 0.187883 0.481822
vt 0.790707 0.401922
vt 0.750000 0.490000
vt 0.812117 0.481822
vt 0.870000 0.457846
vt 0.919706 0.419706
vt 0.886210 0.328641
vt 0.957846 0.370000
vt 0.981822 0.312117
vt 0.901922 0.290707
vt 0.990000 0.250000
vt 0.907281 0.250000
vt 0.901922 0.209293
vt 0.981822 0.187883
vt 0.886209 0.171359
vt 0.957846 0.130000
vt 0.919706 0.080294
vt 0.861214 0.138785
vt 0.828640 0.113791
vt 0.870000 0.042154
vt 0.812117 0.018178
vt 0.790707 0.098078
vt 0.750000 0.010000
vt 0.750000 0.092719
vt 0.709293 0.098078
vt 0.687883 0.018178
vt 0.671359 0.113791
vt 0.630000 0.042154
vt 0.580294 0.080294
vt 0.638785 0.138785
vt 0.613790 0.171359
vt 0.542154 0.130000
vt 0.518178 0.187883
vt 0.598078 0.209293
vt 0.510000 0.250000
vt 0.592719 0.250000
vt 0.598078 0.290707
vt 0.518178 0.312117
vt 0.613790 0.328641
vt 0.542154 0.370000
vt 0.580294 0.419706
vt 0.638785 0.361215
vt 0.671359 0.386209
vt 0.630000 0.457846
vt 0.687883 0.481822
vt 0.709293 0.401922
vt 0.750000 0.407281
s 0
f 26/1/1 25/2/1 27/3/1
f 27/3/2 25/2/2 28/4/2
f 28/4/3 25/2/3 29/5/3
f 29/5/4 25/2/4 30/6/4
f 30/6/5 25/2/5 31/7/5
f 31/7/6 25/2/6 32/8/6
f 32/8/7 25/2/7 33/9/7
f 33/9/8 25/2/8 34/10/8
f 34/10/9 25/2/9 35/11/9
f 35/11/10 25/2/10 36/12/10
f 36/12/11 25/2/11 37/13/11
f 37/13/12 25/2/12 38/14/12
f 38/14/13 25/2/13 39/15/13
f 39/15/14 25/2/14 40/16/14
f 40/16/15 25/2/15 41/17/15
f 41/17/16 25/2/16 42/18/16
f 42/18/17 25/2/17 43/19/17
f 43/19/18 25/2/18 44/20/18
f 44/20/19 25/2/19 45/21/19
f 45/21/20 25/2/20 46/22/20
f 46/22/21 25/2/21 47/23/21
f 47/23/22 25/2/22 48/24/22
f 4/25/23 52/26/23 3/26/23
f 48/24/24 25/2/24 49/27/24
f 49/27/25 25/2/25 26/1/25
f 2/28/26 26/29/26 27/30/26
f 3/26/26 27/30/26 28/31/26
f 3/26/26 29/32/26 4/25/26
f 5/33/26 29/32/26 30/34/26
f 5/33/26 31/35/26 6/36/26
f 6/36/26 32/37/26 7/38/26
f 8/39/26 32/37/26 33/40/26
f 9/41/26 33/40/26 34/42/26
f 9/41/26 35/43/26 10/44/26
f 11/45/26 35/43/26 36/46/26
f 11/45/26 37/47/26 12/48/26
f 12/48/26 38/49/26 13/50/26
f 14/51/26 38/49/26 39/52/26
f 15/53/26 39/52/26 40/54/26
f 15/53/26 41/55/26 16/56/26
f 17/57/26 41/55/26 42/58/26
f 17/57/26 43/59/26 18/60/26
f 18/60/26 44/61/26 19/62/26
f 20/63/26 44/61/26 45/64/26
f 21/65/26 45/64/26 46/66/26
f 21/65/26 47/67/26 22/68/26
f 23/69/26 47/67/26 48/70/26
f 23/69/26 49/71/26 24/72/26
f 24/72/26 26/29/26 1/73/26
f 57/39/26 65/56/26 73/72/26
f 19/62/27 67/60/27 18/60/27
f 12/48/28 60/45/28 11/45/28
f 5/33/29 53/25/29 4/25/29
f 20/63/30 68/62/30 19/62/30
f 13/50/31 61/48/31 12/48/31
f 6/36/32 54/33/32 5/33/32
f 21/65/33 69/63/33 20/63/33
f 14/51/34 62/50/34 13/50/34
f 7/38/35 55/36/35 6/36/35
f 22/68/36 70/65/36 21/65/36
f 15/53/37 63/51/37 14/51/37
f 8/39/38 56/38/38 7/38/38
f 23/69/39 71/68/39 22/68/39
f 16/56/40 64/53/40 15/53/40
f 9/41/41 57/39/41 8/39/41
f 24/72/42 72/69/42 23/69/42
f 2/28/43 50/73/43 1/73/43
f 17/57/44 65/56/44 16/56/44
f 10/44/45 58/41/45 9/41/45
f 1/73/46 73/72/46 24/72/46
f 3/26/47 51/28/47 2/28/47
f 18/60/48 66/57/48 17/57/48
f 11/45/49 59/44/49 10/44/49
f 4/25/23 53/25/23 52/26/23
f 2/28/26 1/73/26 26/29/26
f 3/26/26 2/28/26 27/30/26
f 3/26/26 28/31/26 29/32/26
f 5/33/26 4/25/26 29/32/26
f 5/33/26 30/34/26 31/35/26
f 6/36/26 31/35/26 32/37/26
f 8/39/26 7/38/26 32/37/26
f 9/41/26 8/39/26 33/40/26
f 9/41/26 34/42/26 35/43/26
f 11/45/26 10/44/26 35/43/26
f 11/45/26 36/46/26 37/47/26
f 12/48/26 37/47/26 38/49/26
f 14/51/26 13/50/26 38/49/26
f 15/53/26 14/51/26 39/52/26
f 15/53/26 40/54/26 41/55/26
f 17/57/26 16/56/26 41/55/26
f 17/57/26 42/58/26 43/59/26
f 18/60/26 43/59/26 44/61/26
f 20/63/26 19/62/26 44/61/26
f 21/65/26 20/63/26 45/64/26
f 21/65/26 46/66/26 47/67/26
f 23/69/26 22/68/26 47/67/26
f 23/69/26 48/70/26 49/71/26
f 24/72/26 49/71/26 26/29/26
f 73/72/26 50/73/26 53/25/26
f 50/73/26 51/28/26 53/25/26
f 51/28/26 52/26/26 53/25/26
f 53/25/26 54/33/26 55/36/26
f 55/36/26 56/38/26 53/25/26
f 56/38/26 57/39/26 53/25/26
f 57/39/26 58/41/26 59/44/26
f 59/44/26 60/45/26 61/48/26
f 61/48/26 62/50/26 65/56/26
f 62/50/26 63/51/26 65/56/26
f 63/51/26 64/53/26 65/56/26
f 65/56/26 66/57/26 67/60/26
f 67/60/26 68/62/26 65/56/26
f 68/62/26 69/63/26 65/56/26
f 69/63/26 70/65/26 71/68/26
f 71/68/26 72/69/26 73/72/26
f 57/39/26 59/44/26 61/48/26
f 69/63/26 71/68/26 65/56/26
f 71/68/26 73/72/26 65/56/26
f 73/72/26 53/25/26 57/39/26
f 57/39/26 61/48/26 65/56/26
f 19/62/27 68/62/27 67/60/27
f 12/48/28 61/48/28 60/45/28
f 5/33/29 54/33/29 53/25/29
f 20/63/30 69/63/30 68/62/30
f 13/50/31 62/50/31 61/48/31
f 6/36/32 55/36/32 54/33/32
f 21/65/33 70/65/33 69/63/33
f 14/51/34 63/51/34 62/50/34
f 7/38/35 56/38/35 55/36/35
f 22/68/36 71/68/36 70/65/36
f 15/53/37 64/53/37 63/51/37
f 8/39/38 57/39/38 56/38/38
f 23/69/39 72/69/39 71/68/39
f 16/56/40 65/56/40 64/53/40
f 9/41/41 58/41/41 57/39/41
f 24/72/42 73/72/42 72/69/42
f 2/28/43 51/28/43 50/73/43
f 17/57/44 66/57/44 65/56/44
f 10/44/45 59/44/45 58/41/45
f 1/73/46 50/73/46 73/72/46
f 3/26/47 52/26/47 51/28/47
f 18/60/48 67/60/48 66/57/48
f 11/45/49 60/45/49 59/44/49
